HIERARCHY
ROOT Hips
{
	OFFSET 0.000000 0.000000 0.000000
	CHANNELS 6 Xposition Yposition Zposition Xrotation Yrotation Zrotation
	JOINT LeftUpLeg_virtual
	{
		OFFSET 0.000000 0.000000 0.000000
		CHANNELS 3 Xrotation Yrotation Zrotation
		JOINT LeftUpLeg
		{
			OFFSET 11.394100 -6.187798 -0.413800
			CHANNELS 3 Xrotation Yrotation Zrotation
			JOINT LeftLeg
			{
				OFFSET 0.430247 -32.302673 3.732800
				CHANNELS 3 Xrotation Yrotation Zrotation
				JOINT LeftFoot
				{
					OFFSET -0.430247 -48.264931 -6.423300
					CHANNELS 3 Xrotation Yrotation Zrotation
					JOINT LeftToeBase
					{
						OFFSET 4.230900 -16.068199 23.438400
						CHANNELS 3 Xrotation Yrotation Zrotation
						JOINT LeftToe_End
						{
							OFFSET 4.510700 0.695400 19.974600
							CHANNELS 3 Xrotation Yrotation Zrotation
							End Site
							{
								OFFSET 0 0 0
							}
						}
					}
				}
			}
		}
	}
	JOINT RightUpLeg_virtual
	{
		OFFSET 0.000000 0.000000 0.000000
		CHANNELS 3 Xrotation Yrotation Zrotation
		JOINT RightUpLeg
		{
			OFFSET -11.333700 -6.187798 -0.413800
			CHANNELS 3 Xrotation Yrotation Zrotation
			JOINT RightLeg
			{
				OFFSET -0.430392 -32.302628 3.733000
				CHANNELS 3 Xrotation Yrotation Zrotation
				JOINT RightFoot
				{
					OFFSET 0.430392 -48.264973 -6.423500
					CHANNELS 3 Xrotation Yrotation Zrotation
					JOINT RightToeBase
					{
						OFFSET -4.230900 -16.068199 23.438400
						CHANNELS 3 Xrotation Yrotation Zrotation
						JOINT RightToe_End
						{
							OFFSET -4.510700 0.695400 19.974600
							CHANNELS 3 Xrotation Yrotation Zrotation
							End Site
							{
								OFFSET 0 0 0
							}
						}
					}
				}
			}
		}
	}
	JOINT Spine_virtual
	{
		OFFSET 0.000000 0.000000 0.000000
		CHANNELS 3 Xrotation Yrotation Zrotation
		JOINT Spine
		{
			OFFSET -0.002400 12.777504 0.315300
			CHANNELS 3 Xrotation Yrotation Zrotation
			JOINT Spine1
			{
				OFFSET -0.002067 5.816869 0.032633
				CHANNELS 3 Xrotation Yrotation Zrotation
				JOINT Spine1_split
				{
					OFFSET -0.002067 5.816869 0.032633
					CHANNELS 3 Xrotation Yrotation Zrotation
					JOINT Spine2
					{
						OFFSET -0.002067 5.816869 0.032633
						CHANNELS 3 Xrotation Yrotation Zrotation
						JOINT Neck_virtual
						{
							OFFSET 0.000000 0.000000 0.000000
							CHANNELS 3 Xrotation Yrotation Zrotation
							JOINT Neck
							{
								OFFSET -0.003700 21.199493 -0.826900
								CHANNELS 3 Xrotation Yrotation Zrotation
								JOINT Head
								{
									OFFSET 0.000000 20.442200 4.834800
									CHANNELS 3 Xrotation Yrotation Zrotation
									JOINT HeadTop_End
									{
										OFFSET 0.000000 34.668396 4.968400
										CHANNELS 3 Xrotation Yrotation Zrotation
										End Site
										{
											OFFSET 0 0 0
										}
									}
								}
							}
						}
						JOINT LeftShoulder_virtual
						{
							OFFSET 0.000000 0.000000 0.000000
							CHANNELS 3 Xrotation Yrotation Zrotation
							JOINT LeftShoulder
							{
								OFFSET 3.288150 8.794197 -1.372250
								CHANNELS 3 Xrotation Yrotation Zrotation
								JOINT LeftShoulder_split
								{
									OFFSET 3.288150 8.794197 -1.372250
									CHANNELS 3 Xrotation Yrotation Zrotation
									JOINT LeftArm
									{
										OFFSET 11.953299 -2.279007 -0.146200
										CHANNELS 3 Xrotation Yrotation Zrotation
										JOINT LeftForeArm
										{
											OFFSET 18.448900 0.000000 0.000000
											CHANNELS 3 Xrotation Yrotation Zrotation
											JOINT LeftHand
											{
												OFFSET 29.527798 0.000000 0.000000
												CHANNELS 3 Xrotation Yrotation Zrotation
												End Site
												{
													OFFSET 0 0 0
												}
											}
										}
									}
								}
							}
						}
						JOINT RightShoulder_virtual
						{
							OFFSET 0.000000 0.000000 0.000000
							CHANNELS 3 Xrotation Yrotation Zrotation
							JOINT RightShoulder
							{
								OFFSET -3.249400 8.794197 -1.372250
								CHANNELS 3 Xrotation Yrotation Zrotation
								JOINT RightShoulder_split
								{
									OFFSET -3.249400 8.794197 -1.372250
									CHANNELS 3 Xrotation Yrotation Zrotation
									JOINT RightArm
									{
										OFFSET -11.953299 -2.279007 -0.146200
										CHANNELS 3 Xrotation Yrotation Zrotation
										JOINT RightForeArm
										{
											OFFSET -18.448900 0.000000 0.000000
											CHANNELS 3 Xrotation Yrotation Zrotation
											JOINT RightHand
											{
												OFFSET -29.527802 0.000000 0.000000
												CHANNELS 3 Xrotation Yrotation Zrotation
												End Site
												{
													OFFSET 0 0 0
												}
											}
										}
									}
								}
							}
						}
					}
				}
			}
		}
	}
}
MOTION
Frames: 11
Frame Time: 0.03333333
-58.663460 26.973049 1.829262 0.000000 0.000000 0.000000 -52.084560 11.838893 105.137457 -32.533345 11.662568 0.561961 58.997767 6.637095 -9.855696 -4.601703 -15.771489 5.925893 -6.747001 -3.263294 4.170103 0.000000 0.000000 0.000000 -61.600158 7.726033 109.910892 -45.352681 -34.338045 -18.736080 116.155249 -3.027095 0.232914 -25.707451 5.580716 9.895967 6.962877 -2.264803 5.847217 0.000000 0.000000 0.000000 -53.309814 7.059013 100.618112 13.393386 -1.330465 -5.255324 17.781636 0.272011 -2.645874 0.360673 2.584505 -1.125038 0.000000 0.000000 0.000000 12.248114 0.874417 -2.563707 44.146006 7.355202 -10.882289 -6.806108 11.316304 -1.879099 0.000000 0.000000 0.000000 15.669227 1.758711 -2.453967 0.661708 -3.349774 -13.516196 0.055446 -11.847736 -1.130440 -55.804473 -8.792153 -20.872930 46.785628 -12.135129 10.836937 0.000000 0.000000 0.000000 16.584331 1.758937 -3.183193 4.837079 19.376454 -10.606745 -10.391047 -7.006908 2.900443 -19.499862 -3.044902 15.268719 22.285541 47.328341 -14.317254 0.000000 0.000000 0.000000 
-62.577473 21.474159 2.050259 0.000000 0.000000 0.000000 -54.430870 1.538953 110.773770 -27.745261 4.941772 -4.444765 58.279819 10.138318 -7.416648 -5.914513 -10.336561 5.238129 -8.579784 -3.125945 3.096297 0.000000 0.000000 0.000000 -61.962014 -2.729808 114.470016 -48.953345 -30.395687 -23.450999 116.722223 -6.020389 2.124214 -28.183584 1.006603 11.469106 4.189101 -2.826683 5.643891 0.000000 0.000000 0.000000 -56.388314 -1.486290 105.184025 14.100506 -2.121075 -5.412890 17.741184 -0.173999 -1.626377 0.705509 3.635125 -0.801341 0.000000 0.000000 0.000000 11.925776 0.203952 -1.494135 40.888914 4.163098 -8.003251 -6.739856 3.901603 -1.747128 0.000000 0.000000 0.000000 15.361147 1.187653 -1.192638 0.319397 -4.014631 -17.808487 -1.441368 -11.365946 -1.323891 -60.062177 -2.499332 -24.423761 47.959348 -14.346720 12.371385 0.000000 0.000000 0.000000 16.727965 1.138467 -2.190065 4.696923 19.955239 -9.970578 -10.014905 -6.922973 2.893987 -16.056439 -1.548276 13.377855 25.976524 44.584401 -18.664761 0.000000 0.000000 0.000000 
-66.601021 18.700874 1.432487 0.000000 0.000000 0.000000 -56.208198 -7.539347 113.863700 -25.014325 -1.208986 -7.107510 56.721883 13.698688 -5.467284 -2.734438 -4.207482 2.689606 -9.427809 -2.747540 2.035227 0.000000 0.000000 0.000000 -61.340597 -11.602795 115.975260 -48.790626 -27.464828 -27.860786 112.382512 -8.723283 3.511090 -26.962100 -2.002095 14.909866 -0.236968 -2.634457 3.725235 0.000000 0.000000 0.000000 -59.126960 -8.567570 107.537565 15.041557 -2.456377 -4.878387 16.522658 -0.227650 -0.271320 -0.597974 3.600012 0.546592 0.000000 0.000000 0.000000 10.641047 0.008873 -0.177138 36.008078 0.821038 -5.100996 -9.319406 -4.397067 -1.661031 0.000000 0.000000 0.000000 13.775168 1.085581 0.377837 -0.054148 -4.267994 -20.927519 -2.506522 -10.562056 -2.560163 -63.498800 9.758663 -24.727436 50.806485 -19.516528 17.192710 0.000000 0.000000 0.000000 15.456465 0.876040 -0.910594 4.831800 20.470256 -9.679035 -10.695425 -7.024483 3.225593 -14.075002 3.752629 10.804211 23.995751 42.283696 -18.652222 0.000000 0.000000 0.000000 
-70.416214 18.656513 0.039024 0.000000 0.000000 0.000000 -58.413916 -14.813497 114.416372 -24.229230 -5.369891 -6.406216 54.640683 16.621183 -4.340796 6.292624 0.815651 -1.851894 -8.231216 -2.251948 0.893159 0.000000 0.000000 0.000000 -61.705534 -18.036685 114.980634 -45.559845 -25.827174 -30.707725 102.206425 -11.138813 4.250928 -23.385854 -3.055841 18.749144 -2.360023 -1.611896 0.950770 0.000000 0.000000 0.000000 -61.990210 -14.057108 107.723592 16.470472 -2.354921 -3.426013 14.580536 -0.237415 1.255518 -1.497296 2.734047 1.659899 0.000000 0.000000 0.000000 8.877833 -0.024274 1.207898 30.115800 -2.110256 -2.657906 -13.758410 -11.884698 -2.280034 0.000000 0.000000 0.000000 11.491005 1.045009 2.062554 -0.356534 -4.617003 -22.307362 -2.993887 -9.773968 -4.158042 -67.032651 23.861206 -21.335908 56.328980 -25.641973 25.584275 0.000000 0.000000 0.000000 13.311165 0.675250 0.488393 5.183864 20.463057 -9.783035 -11.557070 -8.388108 4.178189 -14.322223 10.517216 8.796690 16.817669 39.123832 -14.542868 0.000000 0.000000 0.000000 
-73.827957 20.702015 -2.241856 0.000000 0.000000 0.000000 -61.097381 -20.156421 112.473265 -25.162099 -6.791970 -2.572646 53.009621 18.918087 -4.257356 18.344715 3.396629 -6.532063 -5.435514 -1.794366 -0.232372 0.000000 0.000000 0.000000 -64.092808 -22.045556 112.197940 -41.079022 -25.175732 -31.824225 87.935769 -12.791565 4.219201 -17.668043 -2.012227 21.341812 -0.773067 -0.170196 -1.694624 0.000000 0.000000 0.000000 -64.871334 -18.170007 106.125540 18.403368 -1.798961 -1.019268 12.574554 -0.462711 2.717638 -2.407575 2.309838 2.134751 0.000000 0.000000 0.000000 7.206576 -0.164508 2.529904 24.434112 -4.086662 -0.602428 -18.976736 -16.899213 -3.526378 0.000000 0.000000 0.000000 9.203609 0.793099 3.608184 -0.510742 -4.976921 -21.989985 -3.234613 -9.512599 -5.371059 -70.772665 34.829819 -15.892809 64.498016 -29.630040 36.597270 0.000000 0.000000 0.000000 10.940577 0.300427 1.744537 5.643868 19.548104 -10.429708 -12.585390 -10.894942 5.638404 -15.823098 15.984844 8.301496 6.809155 33.929764 -8.203493 0.000000 0.000000 0.000000 
-77.016716 23.723225 -4.152218 0.000000 0.000000 0.000000 -64.254089 -23.147834 108.754117 -27.051514 -5.942831 3.053469 51.747391 20.926033 -4.803215 28.217272 3.859445 -9.116240 -2.279811 -1.563131 -1.081631 0.000000 0.000000 0.000000 -68.647267 -23.743664 108.761986 -37.266663 -24.634998 -31.803581 73.623558 -13.510235 4.111781 -9.185302 -0.059813 22.202843 2.342847 0.946162 -3.376502 0.000000 0.000000 0.000000 -67.455160 -21.169157 102.943286 20.626396 -0.983831 2.000816 10.917943 -0.932988 3.833139 -2.266266 2.103523 2.047051 0.000000 0.000000 0.000000 5.906809 -0.529991 3.529931 19.475957 -5.176283 1.292158 -23.745479 -19.092657 -4.623183 0.000000 0.000000 0.000000 7.483697 0.265901 4.756443 -0.506574 -5.618903 -20.234760 -2.889199 -8.937559 -6.086791 -72.644130 40.379259 -11.293659 72.098507 -29.280341 46.532402 0.000000 0.000000 0.000000 8.889201 -0.295466 2.683932 6.008687 17.778931 -11.227244 -13.199707 -13.825559 6.933105 -17.698040 19.037076 9.498179 -2.998639 27.042423 -2.181191 0.000000 0.000000 0.000000 
-79.889519 26.437531 -5.522667 0.000000 0.000000 0.000000 -67.885920 -23.795715 104.741258 -29.362642 -3.598060 9.030459 49.837681 22.202758 -5.161220 32.309762 2.915237 -8.880875 -0.929475 -1.633487 -1.054562 0.000000 0.000000 0.000000 -74.353446 -24.325953 105.818365 -35.962903 -23.533374 -31.954043 63.725358 -13.224238 4.292053 1.142617 1.770465 22.313651 4.077940 1.197571 -3.923402 0.000000 0.000000 0.000000 -69.918468 -23.274788 99.396253 22.688131 -0.221216 4.970004 9.665040 -1.545007 4.482024 -1.197514 2.447714 0.893755 0.000000 0.000000 0.000000 4.964066 -1.030277 4.115605 16.008066 -5.949146 3.403523 -27.380427 -18.963602 -4.814282 0.000000 0.000000 0.000000 6.540097 -0.434768 5.391741 -0.305581 -6.357146 -17.412213 -1.506621 -8.402661 -6.226384 -70.934807 40.718743 -10.288391 75.355749 -25.442817 51.703453 0.000000 0.000000 0.000000 7.543573 -0.933812 3.216197 6.179534 15.111519 -12.458948 -13.223735 -16.065713 7.723643 -19.462346 19.032413 11.769038 -10.792830 19.786566 2.033311 0.000000 0.000000 0.000000 
-82.577461 28.141602 -6.212692 0.000000 0.000000 0.000000 -71.266549 -22.508521 101.740046 -31.853554 -1.104435 13.832456 46.959183 21.940014 -4.830968 30.760180 0.713926 -7.187572 -1.780578 -1.968548 -0.075388 0.000000 0.000000 0.000000 -80.073914 -24.270715 103.876802 -36.652974 -22.153432 -32.942238 59.458450 -12.632480 4.662674 10.959271 2.803543 21.597379 3.411637 0.724229 -3.467495 0.000000 0.000000 0.000000 -71.733351 -24.323159 96.430537 24.029294 0.300086 7.379216 8.725005 -2.063163 4.735330 -0.836516 3.467681 -0.205061 0.000000 0.000000 0.000000 4.139560 -1.478780 4.360506 14.132812 -7.052255 5.941432 -29.630143 -17.938640 -3.874984 0.000000 0.000000 0.000000 6.111210 -1.025653 5.621601 -0.047429 -6.854499 -14.118974 0.035555 -7.477467 -6.208273 -66.008854 37.202111 -12.692927 74.214267 -20.545067 52.541005 0.000000 0.000000 0.000000 6.777986 -1.348211 3.399182 6.073792 12.067454 -14.193672 -13.372024 -16.477418 7.141135 -20.625011 16.630503 13.534383 -16.361614 13.800442 4.360918 0.000000 0.000000 0.000000 
-85.057182 28.430481 -6.099022 0.000000 0.000000 0.000000 -74.444417 -19.524569 100.783758 -33.826495 0.634724 16.600742 43.409964 20.091556 -3.855742 25.436128 -2.160544 -5.140858 -3.323770 -2.524684 1.138999 0.000000 0.000000 0.000000 -84.303235 -23.630177 102.954645 -38.210008 -21.032784 -34.829631 59.691407 -12.632594 5.169314 17.774394 2.278274 19.822170 1.908731 -0.208918 -2.613039 0.000000 0.000000 0.000000 -72.901218 -24.219432 94.813100 24.295452 0.314713 8.792332 7.796932 -2.351982 4.744654 -0.608160 4.100855 -1.039249 0.000000 0.000000 0.000000 3.232083 -1.722884 4.321503 13.506405 -8.780556 8.748712 -30.619438 -17.289847 -2.177072 0.000000 0.000000 0.000000 5.814076 -1.364146 5.596426 0.149463 -7.038264 -10.945395 1.277914 -6.204163 -6.028286 -60.376454 32.055300 -15.802283 69.942469 -16.647457 50.849683 0.000000 0.000000 0.000000 6.314525 -1.421132 3.434058 5.735426 9.067740 -16.345000 -13.511769 -15.518342 5.657168 -21.993863 12.680052 14.271987 -20.255732 10.252621 5.295461 0.000000 0.000000 0.000000 
-87.313820 27.479015 -5.435947 0.000000 0.000000 0.000000 -76.920136 -15.593124 101.732608 -34.813922 1.652757 17.403325 39.786026 17.665840 -2.875623 18.048471 -4.542726 -3.069358 -3.675299 -2.980673 1.846213 0.000000 0.000000 0.000000 -86.600494 -22.536409 102.635518 -40.083283 -20.810557 -37.809281 62.016772 -13.233404 5.663821 20.719710 1.100327 17.337860 2.057273 -1.148024 -2.137802 0.000000 0.000000 0.000000 -73.604318 -22.758452 94.835490 23.398061 -0.150416 9.085481 6.717694 -2.422015 4.708571 -1.113894 4.692709 -1.351429 0.000000 0.000000 0.000000 2.180314 -1.695459 4.240917 13.991794 -10.993633 11.629556 -30.389062 -17.329694 -0.329083 0.000000 0.000000 0.000000 5.257567 -1.401249 5.480478 0.189838 -6.750435 -8.331396 1.808417 -5.244955 -5.335226 -56.215810 27.841497 -17.965071 63.897758 -14.779380 48.261359 0.000000 0.000000 0.000000 5.894076 -1.196564 3.447087 5.322442 6.374714 -18.993697 -13.656742 -14.020845 4.488629 -23.730396 7.150843 13.583692 -23.085913 9.312652 5.422644 0.000000 0.000000 0.000000 
-89.282028 25.629620 -4.588219 0.000000 0.000000 0.000000 -78.192798 -11.785574 103.265309 -34.205164 2.008776 17.015068 36.608516 15.744629 -2.156982 10.123367 -5.454839 -1.198604 -2.480825 -3.079290 1.681285 0.000000 0.000000 0.000000 -86.710242 -20.282682 102.629384 -41.712973 -21.644647 -41.324478 64.429277 -13.827931 6.000841 21.085472 0.924704 15.078532 3.297536 -1.539534 -2.530712 0.000000 0.000000 0.000000 -73.713369 -20.187784 95.736084 21.507842 -0.849573 8.535067 5.563864 -2.285617 4.737838 -1.795130 4.810578 -0.877391 0.000000 0.000000 0.000000 1.036599 -1.485386 4.219005 14.997388 -13.283840 14.269286 -28.858195 -17.902443 1.310429 0.000000 0.000000 0.000000 4.289247 -1.226656 5.357469 0.017527 -6.065606 -6.743369 0.753738 -4.488820 -4.433226 -53.681052 26.643893 -18.616485 57.891112 -15.152792 46.073529 0.000000 0.000000 0.000000 5.243812 -0.807392 3.544965 5.026470 4.492724 -21.348909 -13.320158 -12.903366 3.936912 -25.981430 0.323017 12.180610 -25.288866 10.179950 5.197071 0.000000 0.000000 0.000000 
